# xmcd CD database file
#
# Track frame offsets:
#	150
#	5435
#	11912
#	33350
#	40012
#	51825
#	59467
#	89825
#	123625
#	139035
#	169660
#	201532
#	214770
#
# Disc length: 3233 seconds
#
# Revision: 3
# Processed by: cddbd v1.5.2PL0 Copyright (c) Steve Scherf et al.
# Submitted via: CD2WAV32(JP) R3.22
#
DISCID=be0c9f0d
DTITLE=Gidon Kremer - Tango Ballet
DYEAR=1998
DGENRE=Tango
TTITLE0=イントロダクション (Titulos)Tango Ballet
TTITLE1=街 (La calle)-1 Tango Ballet
TTITLE2=出会い－忘却 (Encuentro-Olvido) Tango Ballet
TTITLE3=キャバレー (Cabaret) Tango Ballet
TTITLE4=孤独 (Soledad) Tango Ballet
TTITLE5=終曲・街 (La calle)-2 Tango Ballet
TTITLE6=天使へのイントロダクション (Introduccion al Angel) Concierto Del Angel
TTITLE7=天使のミロンガ (Milonga del Angel) Concierto Del Angel
TTITLE8=天使の死 (La muerte del Angel) Concierto Del Angel
TTITLE9=天使の復活 (Resurreccion del Angel) Concierto Del Angel
TTITLE10=プレリュード (Preludio) Tres Piezas Para Orquesta de Camara
TTITLE11=フーガ (Fuga) Tres Piezas Para Orquesta de Camara
TTITLE12=ディヴェルティメント (Divertimento) Tres Piezas Para Orquesta de Camara
EXTD=
EXTT0=
EXTT1=
EXTT2=
EXTT3=
EXTT4=
EXTT5=
EXTT6=
EXTT7=
EXTT8=
EXTT9=
EXTT10=
EXTT11=
EXTT12=
PLAYORDER=
